<?xml version="1.0" standalone="no"?>
<!DOCTYPE svg PUBLIC "-//W3C//DTD SVG 20010904//EN"
 "http://www.w3.org/TR/2001/REC-SVG-20010904/DTD/svg10.dtd">
<svg version="1.0" xmlns="http://www.w3.org/2000/svg"
 width="512.000000pt" height="512.000000pt" viewBox="0 0 512.000000 512.000000"
 preserveAspectRatio="xMidYMid meet">

<g transform="translate(0.000000,512.000000) scale(0.100000,-0.100000)"
fill="#000000" stroke="none">
<path d="M523 5002 c-91 -32 -155 -97 -182 -182 -11 -34 -12 -35 -64 -36 -153
-4 -271 -129 -271 -289 -1 -113 56 -205 159 -258 54 -27 167 -35 217 -14 l36
15 88 -124 c79 -111 88 -128 85 -163 -4 -64 19 -238 45 -339 89 -342 276 -581
531 -679 98 -37 236 -43 330 -15 285 87 393 434 239 767 -113 242 -471 547
-714 609 -44 12 -52 19 -125 119 l-78 107 25 33 c54 71 72 178 45 267 -44 145
-222 233 -366 182z m160 -153 c48 -23 79 -101 63 -163 -3 -14 -29 -47 -56 -74
-32 -32 -50 -58 -50 -73 0 -14 32 -69 74 -129 67 -94 73 -106 58 -117 -73 -52
-91 -68 -103 -89 -7 -13 -15 -24 -19 -24 -3 0 -41 49 -83 109 -96 135 -111
143 -194 99 -46 -24 -65 -29 -101 -25 -108 12 -158 146 -84 225 43 46 93 55
161 32 71 -25 77 -25 106 5 21 21 25 33 25 89 0 55 4 69 27 97 47 56 109 69
176 38z m314 -709 c136 -42 285 -144 426 -289 165 -170 227 -300 227 -473 0
-142 -53 -244 -152 -292 -103 -49 -208 -43 -333 18 -192 95 -316 288 -396 616
-8 32 -14 111 -14 190 0 121 2 139 23 177 39 74 103 90 219 53z"/>
<path d="M1770 4921 c-90 -29 -165 -95 -202 -176 -17 -38 -23 -68 -22 -125 0
-95 28 -162 93 -223 154 -144 399 -99 493 91 33 67 33 197 0 264 -30 60 -90
120 -150 150 -50 24 -164 35 -212 19z"/>
<path d="M3254 4438 c-16 -12 -71 -58 -121 -101 l-92 -78 -77 37 c-71 35 -82
38 -168 39 -87 0 -96 -2 -168 -38 -54 -26 -90 -53 -121 -88 -41 -47 -47 -50
-113 -60 -191 -30 -348 -180 -394 -378 -17 -71 -8 -191 19 -261 31 -81 111
-182 183 -230 91 -60 178 -84 293 -78 83 5 101 9 176 46 130 63 206 148 251
277 20 60 29 73 62 91 63 35 124 102 158 173 31 61 33 72 33 166 -1 74 -5 108
-18 132 -9 18 -17 38 -17 46 0 7 52 58 116 112 115 98 139 129 127 162 -20 56
-78 70 -129 31z m-376 -271 l30 -12 -230 -195 c-127 -107 -237 -205 -245 -217
-31 -47 8 -113 66 -113 42 1 46 3 309 228 105 89 195 162 200 162 14 0 22 -70
13 -110 -18 -80 -72 -142 -153 -178 -56 -24 -66 -38 -78 -103 -26 -137 -114
-230 -249 -265 -224 -57 -434 147 -387 376 32 154 162 260 319 260 71 0 84 7
121 67 26 43 74 85 116 102 36 14 133 13 168 -2z"/>
<path d="M350 3257 c-186 -52 -283 -264 -199 -432 151 -302 608 -185 587 150
-13 197 -202 335 -388 282z"/>
<path d="M3462 3103 c-650 -124 -2541 -506 -2558 -518 -14 -9 -24 -25 -24 -40
0 -30 -3 -32 -83 -49 l-65 -13 -21 28 c-17 22 -30 29 -56 29 -61 0 -535 -98
-568 -118 -74 -43 -99 -119 -73 -225 80 -335 325 -610 653 -733 122 -46 199
-59 353 -58 130 0 166 4 351 42 113 23 208 42 211 42 3 0 8 -35 11 -78 4 -45
19 -115 35 -165 l29 -86 -422 -3 -421 -3 -36 -24 c-19 -13 -46 -40 -59 -59
-24 -35 -24 -39 -27 -308 -3 -257 -2 -275 17 -312 25 -49 71 -88 119 -102 20
-5 92 -10 160 -10 l122 0 0 -85 c0 -94 11 -128 47 -144 34 -16 2772 -16 2806
0 36 16 47 50 47 144 l0 85 123 0 c67 0 139 5 159 10 48 14 94 53 119 102 19
37 20 55 17 312 -3 269 -3 273 -27 308 -13 19 -40 46 -59 59 l-36 24 -408 3
c-224 1 -408 5 -408 8 0 3 13 24 29 47 79 115 117 238 108 349 -7 83 -26 120
-73 143 -56 26 -99 9 -160 -62 -27 -32 -65 -73 -86 -91 l-37 -33 6 105 c4 63
1 141 -7 196 -12 91 -12 92 12 108 47 32 171 159 220 224 46 62 54 68 102 77
28 6 337 67 686 136 385 77 652 134 677 146 84 41 153 150 153 244 0 140 -130
275 -265 275 -27 0 -129 -15 -225 -34 -155 -30 -177 -37 -197 -60 -13 -15 -23
-35 -23 -46 0 -15 -13 -21 -70 -31 -68 -12 -71 -12 -86 9 -32 46 -41 46 -287
-3 -128 -25 -239 -48 -248 -51 -12 -3 -17 12 -27 82 -14 109 -44 164 -105 193
-41 20 -74 24 -125 14z m-506 -1370 c56 -95 68 -229 35 -388 -11 -50 -27 -110
-36 -133 l-17 -42 -553 0 -553 0 -14 23 c-8 12 -25 48 -38 79 -23 57 -23 59
-7 111 32 101 166 354 204 384 8 6 21 9 29 6 16 -6 53 -73 85 -155 34 -87 81
-188 89 -188 16 0 44 43 84 134 24 53 49 103 56 111 35 42 74 -9 64 -82 -6
-46 -4 -51 27 -81 l34 -33 0 -128 0 -128 47 39 c104 88 228 257 300 408 51
107 64 122 102 118 25 -2 37 -13 62 -55z m397 -384 c20 -31 -2 -92 -49 -136
l-44 -43 -132 0 -132 0 89 45 c50 25 124 70 165 99 41 30 79 53 84 52 5 -1 14
-9 19 -17z m-873 -599 l0 -260 -801 0 c-532 0 -807 3 -820 10 -18 10 -19 24
-19 248 0 172 3 241 12 250 9 9 205 12 820 12 l808 0 0 -260z m1788 248 c9 -9
12 -78 12 -250 0 -224 -1 -238 -19 -248 -13 -7 -288 -10 -820 -10 l-801 0 0
260 0 260 808 0 c615 0 811 -3 820 -12z"/>
</g>
</svg>
